<?xml version="1.0" encoding="utf-8"?><svg xmlns="http://www.w3.org/2000/svg" viewBox="0 0 100 65.2"><title>logo</title><rect x="1.1" y="1" width="97.2" height="63.3" style="fill:#fff"/><path d="M43.5,34.8V56.5h4.3V47.8l5.1,8.7h4.4l-5.1-8.7h2.2l2.1-2.1V37l-2.1-2.2H43.5Zm8.7,8.7H47.8V39.1h4.4v4.4Z" style="fill:#222223"/><path d="M43.5,34.8V56.5h4.3V47.8l5.1,8.7h4.4l-5.1-8.7h2.2l2.1-2.1V37l-2.1-2.2H43.5Zm8.7,8.7H47.8V39.1h4.4v4.4Z" style="fill:#222223"/><rect x="34.8" y="34.8" width="4.3" height="21.7" style="fill:#222223"/><polygon points="43.5 8.7 43.5 21.7 41.3 26.1 39.1 21.7 39.1 8.7 34.8 8.7 34.8 21.7 39.1 30.4 43.5 30.4 47.8 21.7 47.8 8.7 43.5 8.7" style="fill:#222223"/><rect x="26.1" y="8.7" width="4.3" height="21.7" style="fill:#222223"/><polygon points="73.9 39.1 73.9 34.8 60.9 34.8 60.9 56.5 73.9 56.5 73.9 52.2 65.2 52.2 65.2 47.8 73.9 47.8 73.9 43.5 65.2 43.5 65.2 39.1 73.9 39.1" style="fill:#222223"/><polygon points="13 26.1 13 8.7 8.7 8.7 8.7 30.4 21.7 30.4 21.7 26.1 13 26.1" style="fill:#222223"/><polygon points="65.2 13 65.2 8.7 52.2 8.7 52.2 30.4 65.2 30.4 65.2 26.1 56.5 26.1 56.5 21.7 65.2 21.7 65.2 17.4 56.5 17.4 56.5 13 65.2 13" style="fill:#222223"/><polygon points="91.3 39.1 91.3 34.8 80.4 34.8 78.3 37 78.3 45.6 80.4 47.8 87 47.8 87 52.2 78.3 52.2 78.3 56.5 89.1 56.5 91.3 54.4 91.3 45.6 89.1 43.5 82.6 43.5 82.6 39.1 91.3 39.1" style="fill:#222223"/><polygon points="26.1 34.8 26.1 52.2 21.7 52.2 21.7 34.8 17.4 34.8 17.4 52.2 13 52.2 13 34.8 8.7 34.8 8.7 56.5 28.3 56.5 30.4 54.4 30.4 34.8 26.1 34.8" style="fill:#222223"/><path d="M0,0V65.2H100V0H0ZM4.3,60.9V4.3H95.7V60.9H4.3Z" style="fill:#222223"/></svg>
